SplineFontDB: 3.0
FontName: AyannaNarrowTamil-ExtraBold
FullName: AyannaNarrow
FamilyName: AyannaNarrow
OS2FamilyName: "ayanna-tamil tamil"
OS2StyleName: "regular"
Weight: ExtraBold
Copyright: Licensed under the SIL Open Font License 1.1 (see file OFL.txt)
Version: 2.5.0
ItalicAngle: 0
UnderlinePosition: -122.07
UnderlineWidth: 0
Ascent: 800
Descent: 200
InvalidEm: 0
UFOAscent: 799.805
UFODescent: -200.195
LayerCount: 2
Layer: 0 0 "Back" 1
Layer: 1 0 "Fore" 0
FSType: 0
OS2Version: 0
OS2_WeightWidthSlopeOnly: 0
OS2_UseTypoMetrics: 0
CreationTime: 1440916200
ModificationTime: 1443254928
PfmFamily: 16
TTFWeight: 400
TTFWidth: 5
LineGap: 0
VLineGap: 0
Panose: 2 0 6 0 0 0 0 0 0 0
OS2TypoAscent: 800
OS2TypoAOffset: 0
OS2TypoDescent: -200
OS2TypoDOffset: 0
OS2TypoLinegap: 0
OS2WinAscent: 522
OS2WinAOffset: 0
OS2WinDescent: 216
OS2WinDOffset: 0
HheadAscent: 528
HheadAOffset: 0
HheadDescent: -232
HheadDOffset: 0
OS2SubXSize: 841
OS2SubYSize: 780
OS2SubXOff: 0
OS2SubYOff: 240
OS2SupXSize: 841
OS2SupYSize: 780
OS2SupXOff: 0
OS2SupYOff: 601
OS2StrikeYSize: 60
OS2StrikeYPos: 300
OS2CapHeight: 0
OS2XHeight: 0
OS2Vendor: 'ACE '
OS2CodePages: 00000001.00000000
OS2UnicodeRanges: 80108003.00002042.00000000.00000000
Lookup: 260 0 0 "MarktobaseattachmentinTamillook" { "MarktobaseattachmentinTamillook subtable"  } ['abvm' ('taml' <'dflt' > 'DFLT' <'dflt' > ) ]
MarkAttachClasses: 1
DEI: 91125
LangName: 1033 "Licensed under the SIL Open Font License 1.1 (see file OFL.txt)" "" "" "" "" "Version 2.5.0" "" "" "" "" "" "" "" "" "" "" "ayanna-tamil" "tamil"
Encoding: Custom
UnicodeInterp: none
NameList: AGL For New Fonts
DisplaySize: -128
AntiAlias: 1
FitToEm: 1
WinInfo: 0 10 6
BeginPrivate: 3
StemSnapH 13 [34 35 36 64]
StemSnapV 21 [8 10 34 35 36 37 64]
BlueShift 1 0
EndPrivate
Grid
-1000 546.860351562 m 0
 2000 546.860351562 l 1024
-1000 532.211914062 m 0
 2000 532.211914062 l 1024
EndSplineSet
AnchorClass2: "tml_virama" "MarktobaseattachmentinTamillook subtable" 
BeginChars: 263 132

StartChar: tml_E
Encoding: 9 2958 0
GlifName: tml_E_
Width: 644
VWidth: 0
GlyphClass: 2
Flags: HW
AnchorPoint: "tml_virama" 418 1 basechar 0
LayerCount: 2
Back
Fore
SplineSet
53 233 m 256
 53 421 141 531 290 532 c 256
 290 439 l 256
 195 439 149 352 149 243 c 256
 149 151 166 70 212 70 c 256
 256 70 264 132 264 169 c 256
 264 227 237 258 212 258 c 256
 175 258 147 210 158 140 c 257
 76 206 l 257
 97 254 126 354 217 354 c 256
 283 354 360 300 360 166 c 256
 360 51 305 -23 212 -23 c 256
 112 -23 53 85 53 233 c 256
282 439 m 257
 284 532 l 257
 620 532 l 257
 620 439 l 257
 522 439 l 257
 522 0 l 257
 420 0 l 257
 420 439 l 257
 282 439 l 257
EndSplineSet
EndChar

StartChar: tml_Ee
Encoding: 10 2959 1
GlifName: tml_E_e
Width: 630
VWidth: 0
GlyphClass: 2
Flags: HW
HStem: -18 35 0 21<406 509 406 406 509 509> 227 35 474 34
VStem: -40 36 203 36 446 35
AnchorPoint: "tml_virama" 307 1 basechar 0
LayerCount: 2
Back
Fore
SplineSet
39 233 m 256
 39 421 127 531 276 532 c 256
 276 439 l 256
 181 439 136 352 136 243 c 256
 136 151 152 70 198 70 c 256
 242 70 250 132 250 169 c 256
 250 227 223 258 198 258 c 256
 161 258 134 210 145 140 c 257
 62 206 l 257
 83 254 112 354 203 354 c 256
 269 354 347 300 347 166 c 256
 347 51 291 -23 198 -23 c 256
 98 -23 39 85 39 233 c 256
189 -157 m 257
 406 47 l 257
 509 0 l 257
 260 -230 l 257
 189 -157 l 257
269 439 m 257
 271 532 l 257
 606 532 l 257
 606 439 l 257
 509 439 l 257
 509 0 l 257
 406 0 l 257
 406 439 l 257
 269 439 l 257
EndSplineSet
PickledDataWithLists: "(dp1
S'com.fontlab.hintData'
p2
(dp3
S'vhints'
p4
(lp5
(dp6
S'position'
p7
I-41
sS'width'
p8
I37
sa(dp9
g7
I208
sg8
I37
sa(dp10
g7
I457
sg8
I36
sasS'hhints'
p11
(lp12
(dp13
g7
I-18
sg8
I36
sa(dp14
g7
I0
sg8
I21
sa(dp15
g7
I232
sg8
I36
sa(dp16
g7
I485
sg8
I35
sass."
EndChar

StartChar: tml_Ii
Encoding: 6 2952 2
GlifName: tml_I_i
Width: 597
VWidth: 0
GlyphClass: 2
Flags: HW
HStem: 0 21<59 59 59 161 307 307 307 409> 474 34
VStem: 105 35 403 35
LayerCount: 2
Back
Fore
SplineSet
59 0 m 257
 59 538 l 257
 573 538 l 257
 573 445 l 257
 161 445 l 257
 161 0 l 257
 59 0 l 257
178 271 m 256
 178 242 203 216 233 216 c 256
 262 216 288 242 288 271 c 256
 288 300 262 327 233 327 c 256
 203 327 178 300 178 271 c 256
307 0 m 257
 307 475 l 257
 409 475 l 257
 409 0 l 257
 307 0 l 257
424 271 m 256
 424 242 450 216 479 216 c 256
 509 216 534 242 534 271 c 256
 534 300 509 327 479 327 c 256
 450 327 424 300 424 271 c 256
EndSplineSet
PickledDataWithLists: "(dp1
S'com.fontlab.hintData'
p2
(dp3
S'vhints'
p4
(lp5
(dp6
S'position'
p7
I108
sS'width'
p8
I36
sa(dp9
g7
I413
sg8
I36
sasS'hhints'
p10
(lp11
(dp12
g7
I0
sg8
I21
sa(dp13
g7
I485
sg8
I35
sass."
EndChar

StartChar: tml_Lla
Encoding: 31 2995 3
GlifName: tml_L_la
Width: 857
VWidth: 0
GlyphClass: 2
Flags: HW
HStem: -17 35 0 21<414 414 414 517 633 633 633 735> 228 35 474 34 487 35
VStem: 22 36 266 36 414 34 682 35
LayerCount: 2
Back
Fore
SplineSet
53 233 m 256
 53 430 133 547 271 548 c 256
 403 549 496 408 496 207 c 256
 414 236 l 256
 412 368 357 456 271 456 c 256
 189 456 149 361 149 243 c 256
 149 151 166 70 212 70 c 256
 256 70 264 132 264 169 c 256
 264 227 238 258 213 258 c 256
 175 258 147 210 158 140 c 257
 76 206 l 257
 97 254 126 354 218 354 c 256
 284 354 360 300 360 166 c 256
 360 51 305 -23 212 -23 c 256
 112 -23 53 85 53 233 c 256
414 0 m 257
 414 532 l 257
 833 532 l 257
 833 439 l 257
 735 439 l 257
 735 0 l 257
 633 0 l 257
 633 439 l 257
 517 439 l 257
 517 0 l 257
 414 0 l 257
EndSplineSet
PickledDataWithLists: "(dp1
S'com.fontlab.hintData'
p2
(dp3
S'vhints'
p4
(lp5
(dp6
S'position'
p7
I23
sS'width'
p8
I37
sa(dp9
g7
I272
sg8
I37
sa(dp10
g7
I424
sg8
I35
sa(dp11
g7
I698
sg8
I36
sasS'hhints'
p12
(lp13
(dp14
g7
I-17
sg8
I36
sa(dp15
g7
I0
sg8
I21
sa(dp16
g7
I233
sg8
I36
sa(dp17
g7
I485
sg8
I35
sa(dp18
g7
I499
sg8
I36
sass."
EndChar

StartChar: tml_Day
Encoding: 65 3059 4
GlifName: tml_D_ay
Width: 607
VWidth: 0
GlyphClass: 2
Flags: HW
AnchorPoint: "tml_virama" 403 1 basechar 0
LayerCount: 2
Back
Fore
SplineSet
39 233 m 256
 39 430 127 547 276 548 c 256
 407 549 500 427 500 252 c 256
 500 113 457 56 457 56 c 257
 371 77 l 257
 387 115 400 163 400 250 c 256
 400 374 351 456 276 456 c 256
 181 456 136 361 136 243 c 256
 136 151 152 70 198 70 c 256
 242 70 250 132 250 169 c 256
 250 227 223 258 198 258 c 256
 161 258 134 210 145 140 c 257
 62 206 l 257
 83 254 112 354 203 354 c 256
 269 354 347 300 347 166 c 256
 347 51 291 -23 198 -23 c 256
 98 -23 39 85 39 233 c 256
371 77 m 257
 474 93 l 257
 583 93 l 257
 583 0 l 257
 372 0 l 257
 371 77 l 257
EndSplineSet
EndChar

StartChar: tml_Pa
Encoding: 25 2986 5
GlifName: tml_P_a
Width: 489
VWidth: 0
GlyphClass: 2
Flags: HW
HStem: 0 34
VStem: 39 35 415 35
AnchorPoint: "tml_virama" 250 0 basechar 0
LayerCount: 2
Back
Fore
SplineSet
59 0 m 257
 59 530 l 257
 161 530 l 257
 161 98 l 257
 328 98 l 257
 328 530 l 257
 431 530 l 257
 431 0 l 257
 59 0 l 257
EndSplineSet
PickledDataWithLists: "(dp1
S'com.fontlab.hintData'
p2
(dp3
S'vhints'
p4
(lp5
(dp6
S'position'
p7
I50
sS'width'
p8
I36
sa(dp9
g7
I435
sg8
I36
sasS'hhints'
p10
(lp11
(dp12
g7
I0
sg8
I35
sass."
EndChar

StartChar: tml_Ra
Encoding: 28 2992 6
GlifName: tml_R_a
Width: 488
VWidth: 0
GlyphClass: 2
Flags: HW
HStem: 0 21<59 59 59 161 277 277 277 380 381 381> 474 34
VStem: 9 35 308 35
AnchorPoint: "tml_virama" 217 0 basechar 0
LayerCount: 2
Back
Fore
SplineSet
59 0 m 257
 59 538 l 257
 478 538 l 257
 478 445 l 257
 380 445 l 257
 380 0 l 257
 277 0 l 257
 277 445 l 257
 161 445 l 257
 161 0 l 257
 59 0 l 257
69 -166 m 257
 279 31 l 257
 381 0 l 257
 132 -230 l 257
 69 -166 l 257
EndSplineSet
PickledDataWithLists: "(dp1
S'com.fontlab.hintData'
p2
(dp3
S'vhints'
p4
(lp5
(dp6
S'position'
p7
I7
sS'width'
p8
I36
sa(dp9
g7
I313
sg8
I36
sasS'hhints'
p10
(lp11
(dp12
g7
I0
sg8
I21
sa(dp13
g7
I485
sg8
I35
sass."
EndChar

StartChar: tml_Tta
Encoding: 20 2975 7
GlifName: tml_T_ta
Width: 647
VWidth: 0
GlyphClass: 2
Flags: HW
HStem: 0 34
VStem: 59 35
AnchorPoint: "tml_virama" 338 0 basechar 0
LayerCount: 2
Back
Fore
SplineSet
59 0 m 257
 59 531 l 257
 161 531 l 257
 161 101 l 257
 618 101 l 257
 618 0 l 257
 59 0 l 257
EndSplineSet
PickledDataWithLists: "(dp1
S'com.fontlab.hintData'
p2
(dp3
S'vhints'
p4
(lp5
(dp6
S'position'
p7
I60
sS'width'
p8
I36
sasS'hhints'
p9
(lp10
(dp11
g7
I0
sg8
I35
sass."
EndChar

StartChar: tml_Va
Encoding: 33 2997 8
GlifName: tml_V_a
Width: 750
VWidth: 0
GlyphClass: 2
Flags: HW
AnchorPoint: "tml_virama" 417 1 basechar 0
LayerCount: 2
Back
Fore
SplineSet
53 233 m 256
 53 430 141 547 290 548 c 256
 421 549 514 427 514 252 c 256
 514 113 471 56 471 56 c 257
 385 77 l 257
 401 115 414 163 414 250 c 256
 414 374 365 456 290 456 c 256
 195 456 149 361 149 243 c 256
 149 151 166 70 212 70 c 256
 256 70 264 132 264 169 c 256
 264 227 237 258 212 258 c 256
 175 258 147 210 158 140 c 257
 76 206 l 257
 97 254 126 354 217 354 c 256
 283 354 360 300 360 166 c 256
 360 51 305 -23 212 -23 c 256
 112 -23 53 85 53 233 c 256
385 77 m 257
 487 93 l 257
 589 93 l 257
 589 532 l 257
 691 532 l 257
 691 0 l 257
 386 0 l 257
 385 77 l 257
EndSplineSet
EndChar

StartChar: tml_MatraAa
Encoding: 38 3006 9
GlifName: tml_M_atraA_a
Width: 474
VWidth: 0
GlyphClass: 2
Flags: HW
HStem: 0 21<59 59 59 161 277 277 277 380> 474 34
VStem: 115 35 413 35
LayerCount: 2
Back
Fore
SplineSet
59 0 m 257
 59 532 l 257
 478 532 l 257
 478 439 l 257
 380 439 l 257
 380 0 l 257
 277 0 l 257
 277 439 l 257
 161 439 l 257
 161 0 l 257
 59 0 l 257
EndSplineSet
PickledDataWithLists: "(dp1
S'com.fontlab.hintData'
p2
(dp3
S'vhints'
p4
(lp5
(dp6
S'position'
p7
I108
sS'width'
p8
I36
sa(dp9
g7
I413
sg8
I36
sasS'hhints'
p10
(lp11
(dp12
g7
I0
sg8
I21
sa(dp13
g7
I485
sg8
I35
sass."
EndChar

StartChar: tml_Seven
Encoding: 59 3053 10
GlifName: tml_S_even
Width: 582
VWidth: 0
GlyphClass: 2
Flags: HW
HStem: 0 21<421 523 421 421> 474 34
VStem: 92 35 390 35
LayerCount: 2
Back
Fore
SplineSet
39 233 m 256
 39 421 144 531 324 532 c 256
 324 439 l 256
 189 439 136 352 136 243 c 256
 136 151 152 70 198 70 c 256
 242 70 250 132 250 169 c 256
 250 227 224 258 199 258 c 256
 161 258 134 210 145 140 c 257
 62 206 l 257
 83 254 112 354 204 354 c 256
 270 354 347 300 347 166 c 256
 347 51 291 -23 198 -23 c 256
 98 -23 39 85 39 233 c 256
311 439 m 257
 320 532 l 257
 523 532 l 257
 523 439 l 257
 523 439 l 257
 523 0 l 257
 421 0 l 257
 421 439 l 257
 311 439 l 257
EndSplineSet
PickledDataWithLists: "(dp1
S'com.fontlab.hintData'
p2
(dp3
S'vhints'
p4
(lp5
(dp6
S'position'
p7
I94
sS'width'
p8
I36
sa(dp9
g7
I399
sg8
I36
sasS'hhints'
p10
(lp11
(dp12
g7
I0
sg8
I21
sa(dp13
g7
I485
sg8
I35
sass."
EndChar

StartChar: uni0031
Encoding: 256 49 11
GlifName: uni0031
Width: 272
VWidth: 0
GlyphClass: 2
Flags: HW
HStem: 0 21<121 224 121 121>
VStem: 121 103<0 453 453 453>
LayerCount: 2
Back
Fore
SplineSet
19 425 m 257
 20 542 l 257
 224 595 l 257
 224 595 l 257
 224 0 l 257
 121 0 l 257
 121 453 l 257
 19 425 l 257
EndSplineSet
PickledDataWithLists: "(dp1
S'com.fontlab.hintData'
p2
(dp3
S'vhints'
p4
(lp5
(dp6
S'position'
p7
I124
sS'width'
p8
I105
sasS'hhints'
p9
(lp10
(dp11
g7
I0
sg8
I21
sass."
EndChar

StartChar: uni0032
Encoding: 257 50 12
GlifName: uni0032
Width: 448
VWidth: 0
GlyphClass: 2
Flags: HW
HStem: -17 35 0 34 228 35 487 35
VStem: 48 36 291 36 469 37
LayerCount: 2
Back
Fore
SplineSet
21 455 m 257
 42 530 113 600 205 600 c 256
 336 600 431 503 410 328 c 256
 392 214 304 137 236 101 c 257
 429 101 l 257
 429 0 l 257
 30 0 l 257
 30 91 l 257
 196 183 298 259 307 351 c 256
 315 445 265 494 212 495 c 256
 142 496 118 441 109 416 c 257
 21 455 l 257
EndSplineSet
PickledDataWithLists: "(dp1
S'com.fontlab.hintData'
p2
(dp3
S'vhints'
p4
(lp5
(dp6
S'position'
p7
I49
sS'width'
p8
I37
sa(dp9
g7
I298
sg8
I37
sa(dp10
g7
I480
sg8
I38
sasS'hhints'
p11
(lp12
(dp13
g7
I-17
sg8
I36
sa(dp14
g7
I0
sg8
I35
sa(dp15
g7
I233
sg8
I36
sa(dp16
g7
I499
sg8
I36
sass."
EndChar

StartChar: NameMe.13
Encoding: 258 -1 13
GlifName: N_ameM_e.13
Width: 520
VWidth: 0
GlyphClass: 2
Flags: HW
LayerCount: 2
Back
Fore
SplineSet
24 246 m 256
 24 386 102 460 190 460 c 256
 222 460 247 451 269 435 c 257
 231 337 l 257
 206 352 165 360 144 312 c 256
 136 295 132 273 132 246 c 256
 132 164 185 112 238 112 c 256
 341 112 380 238 380 368 c 256
 380 498 343 625 242 625 c 256
 176 625 145 575 135 538 c 258
 133 532 l 257
 29 570 l 257
 31 574 l 258
 55 648 110 737 242 737 c 256
 471 737 491 476 491 368 c 256
 491 259 467 0 238 0 c 256
 90 0 24 133 24 246 c 256
EndSplineSet
EndChar

StartChar: tml_A
Encoding: 3 2949 14
GlifName: tml_A_
Width: 805
VWidth: 0
GlyphClass: 2
Flags: HW
HStem: -131 35 156 34 291 34 480 36
VStem: 151 36 512 36 654 35 654 8
LayerCount: 2
Back
Fore
SplineSet
56 57 m 256
 55 154 115 214 231 214 c 258
 662 214 l 257
 662 121 l 257
 228 121 l 258
 182 121 159 90 159 54 c 256
 159 -11 222 -48 292 -48 c 256
 430 -48 485 44 486 182 c 256
 487 317 451 458 353 457 c 256
 326 457 307 434 307 406 c 256
 307 374 326 348 354 348 c 256
 377 348 399 365 399 403 c 256
 399 442 374 457 354 457 c 257
 451 463 l 257
 463 437 468 411 468 389 c 256
 468 313 425 259 348 259 c 256
 271 258 213 315 212 400 c 256
 211 491 272 549 354 548 c 256
 527 547 586 356 587 186 c 256
 588 -10 486 -141 292 -141 c 256
 146 -141 57 -51 56 57 c 256
645 -113 m 257
 645 532 l 257
 747 532 l 257
 747 -113 l 257
 645 -113 l 257
EndSplineSet
PickledDataWithLists: "(dp1
S'com.fontlab.hintData'
p2
(dp3
S'vhints'
p4
(lp5
(dp6
S'position'
p7
I155
sS'width'
p8
I37
sa(dp9
g7
I524
sg8
I37
sa(dp10
g7
I670
sg8
I36
sa(dp11
g7
I670
sg8
I8
sasS'hhints'
p12
(lp13
(dp14
g7
I-134
sg8
I36
sa(dp15
g7
I160
sg8
I35
sa(dp16
g7
I298
sg8
I35
sa(dp17
g7
I492
sg8
I37
sass."
EndChar

StartChar: tml_Aa
Encoding: 4 2950 15
GlifName: tml_A_a
Width: 1049
VWidth: 0
GlyphClass: 2
Flags: HW
HStem: -131 35 156 34 291 34 480 36
LayerCount: 2
Back
Fore
SplineSet
496 -141 m 257
 588 -125 l 257
 604 -232 650 -280 749 -281 c 256
 867 -282 903 -179 903 -80 c 256
 903 -3 886 64 828 64 c 256
 771 64 748 33 747 -23 c 257
 674 -57 l 257
 672 68 736 157 828 157 c 256
 953 157 1006 40 1006 -80 c 256
 1006 -251 909 -374 749 -374 c 256
 653 -374 517 -336 496 -141 c 257
EndSplineSet
Refer: 14 2949 N 1 0 0 1 0 0 2
PickledDataWithLists: "(dp1
S'com.fontlab.hintData'
p2
(dp3
S'hhints'
p4
(lp5
(dp6
S'position'
p7
I-134
sS'width'
p8
I36
sa(dp9
g7
I160
sg8
I35
sa(dp10
g7
I298
sg8
I35
sa(dp11
g7
I492
sg8
I37
sass."
EndChar

StartChar: tml_Nnna
Encoding: 24 2985 16
GlifName: tml_N_nna
Width: 917
VWidth: 0
GlyphClass: 2
Flags: HW
LayerCount: 2
Back
Fore
SplineSet
39 233 m 256
 39 427 148 542 334 543 c 256
 334 450 l 256
 192 450 136 359 136 243 c 256
 136 151 152 70 198 70 c 256
 242 70 250 132 250 169 c 256
 250 227 224 258 199 258 c 256
 161 258 134 210 145 140 c 257
 62 206 l 257
 83 254 112 354 204 354 c 256
 270 354 347 300 347 166 c 256
 347 51 291 -23 198 -23 c 256
 98 -23 39 85 39 233 c 256
334 450 m 257
 334 543 l 257
 355 543 l 257
 355 450 l 257
 334 450 l 257
353 450 m 256
 353 543 l 256
 501 543 657 447 657 203 c 256
 657 50 616 -23 516 -23 c 256
 419 -23 371 52 371 203 c 256
 371 404 449 532 632 533 c 257
 903 533 l 257
 903 440 l 257
 806 440 l 257
 806 0 l 257
 703 0 l 257
 703 440 l 257
 633 440 l 257
 518 440 474 350 474 203 c 256
 474 134 488 70 516 70 c 256
 543 70 554 127 554 202 c 256
 554 393 442 450 353 450 c 256
EndSplineSet
EndChar

StartChar: tml_Nna
Encoding: 21 2979 17
GlifName: tml_N_na
Width: 1244
VWidth: 0
GlyphClass: 2
Flags: HW
HStem: -17 35 1 21 228 35 475 34
VStem: -50 36 193 36 437 35
AnchorPoint: "tml_virama" 465 0 basechar 0
LayerCount: 2
Back
Fore
SplineSet
39 233 m 256
 39 427 148 542 335 543 c 256
 335 450 l 256
 201 450 136 359 136 243 c 256
 136 151 152 70 198 70 c 256
 242 70 250 132 250 169 c 256
 250 227 224 258 199 258 c 256
 161 258 134 210 145 140 c 257
 62 206 l 257
 83 254 112 354 204 354 c 256
 270 354 347 300 347 166 c 256
 347 51 291 -23 198 -23 c 256
 98 -23 39 85 39 233 c 256
335 450 m 257
 335 543 l 257
 356 543 l 257
 356 450 l 257
 335 450 l 257
354 450 m 256
 354 543 l 256
 502 543 657 447 657 203 c 256
 657 50 616 -23 516 -23 c 256
 420 -23 373 52 373 203 c 256
 373 410 465 542 680 543 c 257
 676 450 l 257
 531 450 476 356 476 203 c 256
 476 134 489 70 516 70 c 256
 543 70 554 127 554 202 c 256
 554 393 443 450 354 450 c 256
673 450 m 256
 673 543 l 256
 822 543 979 447 979 203 c 256
 979 50 937 -23 838 -23 c 256
 743 -23 696 52 696 203 c 256
 696 404 773 532 954 533 c 257
 1227 533 l 257
 1227 440 l 257
 1129 440 l 257
 1129 0 l 257
 1026 0 l 257
 1026 440 l 257
 955 440 l 257
 842 440 799 350 799 203 c 256
 799 134 812 70 838 70 c 256
 864 70 875 127 875 202 c 256
 875 393 763 450 673 450 c 256
EndSplineSet
PickledDataWithLists: "(dp1
S'com.fontlab.hintData'
p2
(dp3
S'vhints'
p4
(lp5
(dp6
S'position'
p7
I-51
sS'width'
p8
I37
sa(dp9
g7
I198
sg8
I37
sa(dp10
g7
I447
sg8
I36
sasS'hhints'
p11
(lp12
(dp13
g7
I-17
sg8
I36
sa(dp14
g7
I1
sg8
I21
sa(dp15
g7
I233
sg8
I36
sa(dp16
g7
I486
sg8
I35
sass."
EndChar

StartChar: tml_Ma
Encoding: 26 2990 19
GlifName: tml_M_a
Width: 609
VWidth: 0
GlyphClass: 2
Flags: HW
HStem: 0 34 508 34
VStem: 68 34 319 34 623 35
AnchorPoint: "tml_virama" 279 0 basechar 0
LayerCount: 2
Back
Fore
SplineSet
59 0 m 257
 59 532 l 257
 161 532 l 257
 161 93 l 257
 369 93 l 257
 384 0 l 257
 59 0 l 257
244 64 m 256
 244 373 l 258
 244 484 278 547 390 548 c 256
 507 549 559 395 560 265 c 256
 561 83 502 0 380 0 c 257
 362 93 l 257
 450 92 457 167 457 265 c 256
 457 347 438 454 391 454 c 256
 352 454 347 423 347 373 c 258
 347 64 l 257
 244 64 l 256
EndSplineSet
PickledDataWithLists: "(dp1
S'com.fontlab.hintData'
p2
(dp3
S'vhints'
p4
(lp5
(dp6
S'position'
p7
I70
sS'width'
p8
I35
sa(dp9
g7
I327
sg8
I35
sa(dp10
g7
I638
sg8
I36
sasS'hhints'
p11
(lp12
(dp13
g7
I0
sg8
I35
sa(dp14
g7
I520
sg8
I35
sass."
EndChar

StartChar: tml_Virama
Encoding: 49 3021 20
GlifName: tml_V_irama
Width: 0
VWidth: 0
GlyphClass: 4
Flags: HW
HStem: 643 47
VStem: -23 47
AnchorPoint: "tml_virama" 0 0 mark 0
LayerCount: 2
Back
Fore
SplineSet
-60 666 m 256
 -60 698 -32 726 0 726 c 256
 32 726 60 698 60 666 c 256
 60 634 32 606 0 606 c 256
 -32 606 -60 634 -60 666 c 256
EndSplineSet
PickledDataWithLists: "(dp1
S'com.fontlab.hintData'
p2
(dp3
S'vhints'
p4
(lp5
(dp6
S'position'
p7
I-24
sS'width'
p8
I48
sasS'hhints'
p9
(lp10
(dp11
g7
I658
sg8
I48
sass."
EndChar

StartChar: tml_I
Encoding: 5 2951 21
GlifName: tml_I_
Width: 981
VWidth: 0
GlyphClass: 2
Flags: HW
HStem: -131 35 156 34 291 34 480 36
VStem: 177 36 537 36 680 35 680 8
LayerCount: 2
Back
Fore
SplineSet
42 57 m 256
 41 267 277 293 431 293 c 256
 583 293 789 248 789 60 c 256
 789 -24 754 -141 557 -141 c 256
 294 -141 151 149 151 409 c 256
 151 631 281 769 510 768 c 256
 793 766 923 560 923 229 c 256
 923 156 923 -40 923 -96 c 257
 812 -95 l 257
 813 -47 814 161 814 248 c 256
 813 503 700 662 510 661 c 256
 349 661 257 581 257 389 c 256
 257 152 441 -38 555 -38 c 256
 664 -38 678 23 678 59 c 256
 678 115 631 185 426 185 c 256
 239 185 146 151 146 51 c 256
 146 -3 182 -38 259 -38 c 256
 385 -38 563 114 590 300 c 256
 610 423 582 517 476 516 c 256
 449 516 430 493 430 465 c 256
 430 433 449 406 477 406 c 256
 500 406 522 424 522 462 c 256
 522 501 497 516 477 516 c 257
 574 521 l 257
 586 495 591 469 591 447 c 256
 591 371 548 318 471 317 c 256
 394 316 336 374 335 459 c 256
 334 550 399 607 487 606 c 256
 646 605 707 445 686 284 c 256
 650 23 442 -141 269 -141 c 256
 107 -141 43 -56 42 57 c 256
EndSplineSet
PickledDataWithLists: "(dp1
S'com.fontlab.hintData'
p2
(dp3
S'vhints'
p4
(lp5
(dp6
S'position'
p7
I181
sS'width'
p8
I37
sa(dp9
g7
I550
sg8
I37
sa(dp10
g7
I696
sg8
I36
sa(dp11
g7
I696
sg8
I8
sasS'hhints'
p12
(lp13
(dp14
g7
I-134
sg8
I36
sa(dp15
g7
I160
sg8
I35
sa(dp16
g7
I298
sg8
I35
sa(dp17
g7
I492
sg8
I37
sass."
EndChar

StartChar: tml_Llla
Encoding: 32 2996 23
GlifName: tml_L_lla
Width: 609
VWidth: 0
GlyphClass: 2
Flags: HW
LayerCount: 2
Back
Fore
SplineSet
244 26 m 25
 344 25 l 25
 344 -9 l 0
 345 -98 456 -101 529 -101 c 25
 529 -192 l 25
 450 -192 l 17
 355 -192 310 -247 215 -247 c 0
 117 -247 60 -193 60 -98 c 0
 60 -88 60 -78 60 -66 c 25
 159 -65 l 17
 159 -100 170 -153 215 -153 c 4
 266 -153 279 -140 319 -132 c 17
 294 -118 247 -85 244 -13 c 0
 244 26 l 25
EndSplineSet
Refer: 19 2990 N 1 0 0 1 0 0 2
EndChar

StartChar: tml_Rra
Encoding: 29 2993 26
GlifName: tml_R_ra
Width: 737
VWidth: 0
GlyphClass: 2
Flags: HW
HStem: -17 35 0 21<299 299 299 620> 228 35 474 34 487 35
VStem: -210 36 33 36 182 34 449 35
AnchorPoint: "tml_virama" 363 -1 basechar 0
LayerCount: 2
Back
Fore
SplineSet
189 361 m 258
 189 1 l 256
 86 1 l 257
 86 366 l 257
 189 361 l 258
416 381 m 258
 416 1 l 256
 313 1 l 257
 313 366 l 258
 313 431 295 455 256 455 c 256
 216 455 189 418 189 353 c 256
 86 347 l 257
 87 450 123 548 256 548 c 256
 370 548 416 481 416 381 c 258
305 -177 m 0
 193 -178 203 -228 201 -294 c 1
 92 -294 l 1
 93 -200 113 -76 303 -75 c 0
 563 -74 568 47 568 250 c 256
 568 341 559 455 481 455 c 256
 429 455 416 415 416 304 c 256
 333 269 l 257
 305 438 365 547 481 547 c 256
 644 547 669 374 669 250 c 256
 669 -13 633 -174 305 -177 c 0
EndSplineSet
EndChar

StartChar: tml_Sha
Encoding: 34 2998 27
GlifName: tml_S_ha
Width: 791
GlyphClass: 2
Flags: HW
AnchorPoint: "tml_virama" 378 0 basechar 0
LayerCount: 2
Back
Fore
SplineSet
59 532 m 1
 161 532 l 1
 161 145 l 2
 161 102 183 78 213 78 c 0
 238 78 269 92 269 145 c 2
 269 532 l 1
 371 532 l 1
 371 145 l 2
 371 38 315 -17 211 -17 c 0
 112 -17 59 43 59 145 c 2
 59 532 l 1
269 439 m 1
 269 532 l 1
 537 532 l 1
 555 439 l 1
 269 439 l 1
435 145 m 256
 435 518 l 256
 542 518 l 257
 542 145 l 256
 542 92 565 81 581 81 c 256
 626 81 635 128 635 269 c 256
 635 386 629 440 522 439 c 257
 532 532 l 257
 654 532 742 504 741 269 c 256
 740 90 706 -15 588 -15 c 256
 516 -15 435 15 435 145 c 256
EndSplineSet
EndChar

StartChar: tml_Ya
Encoding: 27 2991 30
GlifName: tml_Y_a
Width: 677
VWidth: 0
GlyphClass: 2
Flags: HW
HStem: -17 35 0 21<298 298 298 619> 228 35 474 34 487 35
VStem: -211 36 32 36 181 34 448 35
AnchorPoint: "tml_virama" 339 0 basechar 0
LayerCount: 2
Back
Fore
SplineSet
59 152 m 258
 59 532 l 256
 161 532 l 257
 161 157 l 258
 161 99 180 78 220 78 c 256
 282 78 298 124 298 249 c 256
 342 284 l 257
 368 101 311 -17 203 -17 c 256
 91 -17 59 50 59 152 c 258
298 0 m 257
 298 532 l 257
 400 532 l 257
 400 93 l 257
 517 93 l 257
 517 532 l 257
 619 532 l 257
 619 0 l 257
 298 0 l 257
EndSplineSet
PickledDataWithLists: "(dp1
S'com.fontlab.hintData'
p2
(dp3
S'vhints'
p4
(lp5
(dp6
S'position'
p7
I-215
sS'width'
p8
I37
sa(dp9
g7
I34
sg8
I37
sa(dp10
g7
I186
sg8
I35
sa(dp11
g7
I460
sg8
I36
sasS'hhints'
p12
(lp13
(dp14
g7
I-17
sg8
I36
sa(dp15
g7
I0
sg8
I21
sa(dp16
g7
I233
sg8
I36
sa(dp17
g7
I485
sg8
I35
sa(dp18
g7
I499
sg8
I36
sass."
EndChar

StartChar: tml_Nya
Encoding: 19 2974 32
GlifName: tml_N_ya
Width: 1128
VWidth: 0
GlyphClass: 2
Flags: HW
HStem: 0 21<649 752 649 649> 474 34
VStem: 148 35 446 35
LayerCount: 2
Back
Fore
SplineSet
92 222 m 256
 92 354 140 456 195 545 c 257
 282 502 l 257
 230 413 195 343 195 216 c 256
 195 -36 348 -170 559 -169 c 256
 760 -168 883 -67 883 108 c 256
 883 184 863 260 810 260 c 256
 764 260 751 220 752 145 c 256
 752 128 752 110 752 91 c 257
 655 89 l 257
 645 171 663 243 691 285 c 256
 724 335 764 359 815 358 c 256
 927 356 982 238 982 113 c 256
 983 -123 817 -265 558 -264 c 256
 282 -263 93 -88 92 222 c 256
279 233 m 256
 279 421 384 531 564 532 c 256
 564 439 l 256
 429 439 376 352 376 243 c 256
 376 151 392 70 438 70 c 256
 482 70 490 132 490 169 c 256
 490 227 464 258 439 258 c 256
 401 258 374 210 385 140 c 257
 303 206 l 257
 324 254 352 354 444 354 c 256
 510 354 587 300 587 166 c 256
 587 51 531 -23 438 -23 c 256
 338 -23 279 85 279 233 c 256
547 439 m 257
 549 532 l 257
 850 532 l 257
 850 439 l 257
 752 439 l 257
 752 0 l 257
 649 0 l 257
 649 439 l 257
 547 439 l 257
EndSplineSet
PickledDataWithLists: "(dp1
S'com.fontlab.hintData'
p2
(dp3
S'vhints'
p4
(lp5
(dp6
S'position'
p7
I152
sS'width'
p8
I36
sa(dp9
g7
I457
sg8
I36
sasS'hhints'
p10
(lp11
(dp12
g7
I0
sg8
I21
sa(dp13
g7
I485
sg8
I35
sass."
EndChar

StartChar: tml_U
Encoding: 7 2953 34
GlifName: tml_U_
Width: 815
GlyphClass: 2
Flags: HW
LayerCount: 2
Back
Fore
SplineSet
784 93 m 1
 784 0 l 1
 78 0 l 1
 77 93 l 1
 210 93 l 1
 329 103 409 190 410 335 c 0
 411 438 377 519 271 519 c 0
 231 519 196 502 174 474 c 1
 181 475 186 476 194 476 c 0
 256 476 329 428 329 309 c 0
 329 207 276 143 188 143 c 0
 99 143 47 239 47 371 c 0
 47 510 151 610 271 610 c 0
 419 610 509 505 509 337 c 0
 509 213 464 138 420 93 c 1
 784 93 l 1
149 299 m 1
 156 262 167 236 188 236 c 0
 225 236 232 284 232 312 c 0
 232 356 210 380 189 380 c 0
 161 380 149 348 149 299 c 1
EndSplineSet
EndChar

StartChar: tml_Ka
Encoding: 15 2965 37
GlifName: tml_K_a
Width: 611
GlyphClass: 2
Flags: HW
LayerCount: 2
Back
Fore
SplineSet
29 166 m 0
 28 255 80 324 164 324 c 2
 430 324 l 0
 507 324 582 291 582 163 c 0
 582 74 556 1 433 -1 c 1
 392 1 l 1
 392 93 l 1
 425 93 l 2
 463 93 479 117 479 163 c 0
 479 213 456 230 417 230 c 0
 182 232 l 0
 143 232 124 203 124 166 c 0
 124 118 153 93 202 93 c 0
 264 93 294 134 294 196 c 6
 294 441 l 1
 235 441 l 1
 235 294 l 1
 133 294 l 1
 133 532 l 1
 494 532 l 1
 494 441 l 1
 396 441 l 1
 396 196 l 6
 396 94 357 0 202 0 c 0
 78 0 30 71 29 166 c 0
EndSplineSet
EndChar

StartChar: tml_Nga
Encoding: 16 2969 38
GlifName: tml_N_ga
Width: 763
VWidth: 0
GlyphClass: 2
Flags: HW
HStem: 0 21<38 38 38 141 257 257 257 359> 474 34
VStem: -12 35 287 35
AnchorPoint: "tml_virama" 372 0 basechar 0
LayerCount: 2
Back
Fore
SplineSet
58 0 m 257
 58 538 l 257
 448 538 l 257
 448 445 l 257
 351 445 l 257
 351 156 l 257
 248 156 l 257
 248 445 l 257
 160 445 l 257
 160 0 l 257
 58 0 l 257
247 93 m 1
 674 93 l 1
 674 0 l 1
 247 0 l 1
 247 93 l 1
273 92 m 257
 332 92 l 256
 453 93 451 208 451 242 c 256
 451 279 429 301 405 301 c 256
 388 301 349 300 350 209 c 256
 350 192 350 184 350 165 c 257
 263 167 l 257
 253 210 263 286 291 328 c 256
 324 378 354 397 405 397 c 256
 488 397 550 336 551 232 c 256
 552 136 519 10 292 9 c 256
 274 9 l 257
 273 92 l 257
594 540 m 1
 696 540 l 1
 696 0 l 1
 594 0 l 1
 594 540 l 1
EndSplineSet
EndChar

StartChar: tml_Ca
Encoding: 17 2970 39
GlifName: tml_C_a
Width: 555
GlyphClass: 2
Flags: HW
LayerCount: 2
Back
Fore
SplineSet
55 166 m 4
 54 254 94 308 158 322 c 5
 158 532 l 5
 521 532 l 5
 521 441 l 5
 424 441 l 5
 424 324 l 5
 521 324 l 5
 521 232 l 5
 424 232 l 5
 424 209 l 6
 425 105 396 0 230 0 c 4
 104 0 56 71 55 166 c 4
321 232 m 5
 207 232 l 6
 168 232 149 205 149 170 c 4
 149 120 179 93 230 93 c 4
 298 93 321 140 321 205 c 6
 321 232 l 5
321 325 m 5
 321 441 l 5
 261 441 l 5
 261 325 l 5
 321 325 l 5
EndSplineSet
EndChar

StartChar: tml_Ta
Encoding: 22 2980 41
GlifName: tml_T_a
Width: 617
GlyphClass: 2
Flags: HW
AnchorPoint: "tml_virama" 293 0 basechar 0
LayerCount: 2
Back
Fore
SplineSet
29 166 m 0
 28 255 80 324 164 324 c 2
 410 324 l 0
 490 324 568 281 568 114 c 0
 472 114 l 0
 472 199 444 230 397 230 c 0
 182 232 l 0
 143 232 124 203 124 166 c 0
 124 118 153 93 202 93 c 0
 264 93 294 134 294 196 c 2
 294 441 l 1
 235 441 l 1
 235 294 l 1
 133 294 l 1
 133 532 l 1
 494 532 l 1
 494 441 l 1
 396 441 l 1
 396 196 l 2
 396 94 357 0 202 0 c 0
 78 0 30 71 29 166 c 0
410 324 m 5
 488 323 568 280 569 112 c 4
 569 112 l 5
 569 111 569 111 569 110 c 4
 569 109 569 109 569 108 c 6
 569 108 l 5
 567 -54 498 -136 295 -138 c 4
 183 -139 193 -189 191 -255 c 5
 82 -255 l 5
 83 -161 103 -37 293 -36 c 4
 442 -35 472 11 472 111 c 4
 472 199 443 228 397 230 c 5
 410 324 l 5
EndSplineSet
EndChar

StartChar: tml_Na
Encoding: 23 2984 42
GlifName: tml_N_a
Width: 636
VWidth: 0
GlyphClass: 2
Flags: HW
HStem: 0 21<57 57 57 159 275 275 275 378> 474 34
VStem: 7 35 306 35
AnchorPoint: "tml_virama" 244 0 basechar 0
LayerCount: 2
Back
SplineSet
449.21875 324.21875 m 5
 527.76171875 323.2421875 607.3515625 280.2734375 608.3984375 112.3046875 c 4
 608.3984375 112.3046875 l 5
 608.3984375 111.328125 608.3984375 111.328125 608.3984375 110.3515625 c 4
 608.3984375 109.375 608.3984375 109.375 608.3984375 108.3984375 c 6
 608.3984375 108.3984375 l 5
 606.366210938 -53.7109375 537.408203125 -136.307617188 333.984375 -137.6953125 c 4
 221.708984375 -138.4609375 232.112304688 -188.17578125 230.46875 -254.8828125 c 5
 121.09375 -254.8828125 l 5
 122.010742188 -161.400390625 141.94921875 -37.3232421875 332.03125 -36.1328125 c 4
 481.893554688 -35.1943359375 510.7421875 11.7138671875 510.7421875 111.328125 c 4
 510.7421875 199.21875 482.196289062 228.515625 436.5234375 230.46875 c 5
 449.21875 324.21875 l 5
EndSplineSet
Fore
SplineSet
57 0 m 257
 57 538 l 257
 476 538 l 257
 476 445 l 257
 378 445 l 257
 378 0 l 257
 275 0 l 257
 275 445 l 257
 159 445 l 257
 159 0 l 257
 57 0 l 257
124 -265 m 257
 125 -171 127 -48 340 -47 c 256
 478 -46 494 3 494 109 c 256
 494 170 478 230 435 230 c 256
 400 230 378 205 378 157 c 256
 378 140 378 123 378 104 c 257
 310 89 l 257
 312 232 335 328 441 326 c 260
 554 324 596 221 596 114 c 256
 596 -74 525 -139 357 -140 c 256
 239 -141 230 -162 230 -265 c 257
 124 -265 l 257
EndSplineSet
PickledDataWithLists: "(dp1
S'com.fontlab.hintData'
p2
(dp3
S'vhints'
p4
(lp5
(dp6
S'position'
p7
I7
sS'width'
p8
I36
sa(dp9
g7
I313
sg8
I36
sasS'hhints'
p10
(lp11
(dp12
g7
I0
sg8
I21
sa(dp13
g7
I485
sg8
I35
sass."
EndChar

StartChar: tml_Ssa
Encoding: 35 2999 43
GlifName: tml_S_sa
Width: 999
VWidth: 0
GlyphClass: 2
Flags: HW
AnchorPoint: "tml_virama" 444 0 basechar 0
LayerCount: 2
Back
Fore
SplineSet
39 233 m 256
 39 426 127 542 276 542 c 256
 407 542 499 424 499 252 c 256
 499 113 455 56 455 56 c 257
 370 77 l 257
 387 115 400 163 400 250 c 256
 400 370 351 450 276 450 c 256
 181 450 136 358 136 243 c 256
 136 151 152 70 198 70 c 256
 242 70 250 132 250 169 c 256
 250 227 224 258 199 258 c 256
 161 258 134 210 145 140 c 257
 62 206 l 257
 83 254 112 354 204 354 c 256
 270 354 347 300 347 166 c 256
 347 51 291 -23 198 -23 c 256
 98 -23 39 85 39 233 c 256
370 0 m 257
 370 77 l 257
 472 94 l 257
 848 94 l 257
 848 450 l 257
 950 450 l 257
 950 0 l 257
 370 0 l 257
512 390 m 256
 509 489 575 542 646 542 c 256
 763 542 783 457 782 395 c 257
 680 375 l 257
 679 425 673 450 648 449 c 256
 628 449 609 428 610 387 c 256
 610 342 631 244 734 244 c 256
 837 244 847 318 848 418 c 256
 921 415 l 256
 921 283 893 146 730 146 c 256
 618 146 516 221 512 390 c 256
680 -148 m 257
 680 379 l 257
 782 398 l 257
 782 -148 l 257
 680 -148 l 257
EndSplineSet
EndChar

StartChar: tml_MatraU
Encoding: 41 3009 48
GlifName: tml_M_atraU_
Width: 375
VWidth: 0
GlyphClass: 2
Flags: HW
LayerCount: 2
Back
SplineSet
172.8515625 532.2265625 m 6
 253.90625 532.2265625 343.75 509.765625 343.75 366.2109375 c 4
 343.75 262.6953125 291.015625 207.03125 201.171875 207.03125 c 4
 105.46875 207.03125 56.640625 286.1328125 56.640625 366.2109375 c 4
 56.640625 391.76953125 60.1591796875 416.494140625 68.05078125 438.4765625 c 5
 -149.4140625 438.4765625 l 5
 -149.4140625 532.2265625 l 5
 172.8515625 532.2265625 l 6
199.725585938 438.473632812 m 4
 169.811523438 438.071289062 159.1796875 399.241210938 159.1796875 366.2109375 c 4
 159.1796875 337.890625 169.921875 299.8046875 201.171875 299.8046875 c 4
 235.3515625 299.8046875 241.2109375 340.8203125 241.2109375 366.2109375 c 4
 241.2109375 435.526367188 209.723632812 438.368164062 199.725585938 438.473632812 c 4
EndSplineSet
Fore
SplineSet
183 532 m 258
 -149 532 l 0
 -149 439 l 256
 198 439 l 256
 206 439 241 440 241 367 c 256
 241 338 235 290 203 290 c 256
 171 290 159 334 159 367 c 256
 159 400 170 439 200 439 c 257
 197 523 l 257
 92 523 55 450 55 367 c 256
 55 282 102 198 195 198 c 256
 290 198 346 257 346 367 c 256
 346 510 260 532 183 532 c 258
EndSplineSet
EndChar

StartChar: tml_MatraUu
Encoding: 42 3010 49
GlifName: tml_M_atraU_u
Width: 532
VWidth: 0
GlyphClass: 2
Flags: HW
LayerCount: 2
Back
SplineSet
237.080078125 524.2734375 m 1
 295.745117188 509.231445312 343.750976562 468.404296875 343.750976562 366.209960938 c 0
 343.750976562 262.694335938 291.016601562 207.030273438 201.172851562 207.030273438 c 0
 105.469726562 207.030273438 56.6416015625 286.131835938 56.6416015625 366.209960938 c 0
 56.6416015625 390.588867188 59.173828125 415.006835938 64.6025390625 438.475585938 c 1
 -149.413085938 438.475585938 l 1
 -149.413085938 532.225585938 l 1
 108.125976562 532.225585938 l 1
 145.495117188 579.529296875 205.099609375 611.327148438 292.969726562 611.327148438 c 0
 352.540039062 611.327148438 494.141601562 573.241210938 498.047851562 365.233398438 c 0
 499.024414062 287.108398438 447.266601562 188.475585938 447.266601562 188.475585938 c 1
 381.836914062 217.772460938 l 1
 381.836914062 217.772460938 426.758789062 294.920898438 425.782226562 366.209960938 c 0
 424.805664062 462.889648438 361.329101562 535.155273438 299.805664062 535.155273438 c 0
 275.306640625 535.155273438 254.528320312 531.381835938 237.080078125 524.2734375 c 1
167.370117188 438.475585938 m 1
 161.734375 417.137695312 159.181640625 392.849609375 159.181640625 366.209960938 c 0
 159.181640625 337.889648438 169.923828125 299.803710938 201.173828125 299.803710938 c 0
 235.353515625 299.803710938 241.212890625 340.819335938 241.212890625 366.209960938 c 0
 241.212890625 439.452148438 198.244140625 438.475585938 188.478515625 438.475585938 c 2
 167.370117188 438.475585938 l 1
EndSplineSet
Fore
SplineSet
153 532 m 258
 -130 532 l 0
 -130 438 l 256
 169 438 l 256
 191 438 241 439 241 366 c 256
 241 341 235 300 201 300 c 256
 170 300 159 338 159 366 c 256
 159 455 207 534 282 534 c 256
 369 534 409 445 409 378 c 0
 409 295 365 218 365 218 c 1
 446 190 l 1
 446 190 498 273 498 369 c 0
 498 469 448 613 278 613 c 256
 162 613 55 532 55 366 c 256
 55 286 104 207 201 207 c 256
 292 207 346 262 346 366 c 256
 346 510 244 532 153 532 c 258
EndSplineSet
EndChar

StartChar: tml_MatraE
Encoding: 43 3014 50
GlifName: tml_M_atraE_
Width: 595
VWidth: 0
GlyphClass: 2
Flags: HW
HStem: -17 35 0 21<414 414 414 517 633 633 633 735> 228 35 474 34 487 35
VStem: 22 36 266 36 414 34 682 35
LayerCount: 2
Back
Fore
SplineSet
62 233 m 256
 62 626 177 801 334 802 c 256
 470 803 535 719 535 548 c 2
 537 0 l 256
 434 0 l 256
 433 548 l 2
 433 647 407 699 330 699 c 256
 205 699 159 460 159 243 c 256
 159 151 176 70 222 70 c 256
 266 70 273 132 273 169 c 256
 273 227 248 258 223 258 c 256
 185 258 157 210 168 140 c 257
 86 206 l 257
 107 254 136 354 228 354 c 256
 294 354 370 300 370 166 c 256
 370 51 315 -23 222 -23 c 256
 122 -23 62 85 62 233 c 256
EndSplineSet
EndChar

StartChar: tml_MatraEe
Encoding: 44 3015 51
GlifName: tml_M_atraE_e
Width: 477
VWidth: 0
GlyphClass: 2
Flags: HW
HStem: -17 35 0 21<1020 1020 1020 1122 1238 1238 1238 1341> 228 35 474 34 487 35
VStem: 628 36 871 36 1020 34 1287 35
LayerCount: 2
Back
Fore
SplineSet
291 70 m 256
 332 70 339 132 339 165 c 256
 339 232 318 263 291 263 c 256
 266 263 247 221 247 165 c 0
 247 139 255 71 290 71 c 257
 229 16 l 257
 180 73 162 114 162 151 c 0
 162 293 225 354 297 354 c 256
 363 354 438 299 438 165 c 256
 438 50 382 -23 288 -23 c 256
 67 -23 40 206 40 365 c 256
 40 615 132 803 287 803 c 256
 380 803 438 728 438 613 c 256
 438 479 360 426 294 426 c 256
 215 426 165 513 165 614 c 0
 165 659 190 732 200 759 c 257
 289 710 l 257
 289 710 244 703 244 613 c 0
 244 553 272 521 293 521 c 256
 318 521 343 552 343 610 c 256
 343 647 335 709 291 709 c 256
 218 709 137 513 137 365 c 256
 137 248 140 70 291 70 c 256
EndSplineSet
EndChar

StartChar: dottedcircle
Encoding: 74 9676 113
GlifName: dottedcircle
Width: 743
VWidth: 0
GlyphClass: 2
Flags: HW
HStem: -31 62<367 376> -15 62<273 282 462 472> 37 63<190 199 545 554> 123 62<140 149 595 604> 213 62<125 133 610 619> 304 62<140 149 595 604> 388 63<191 200 544 553> 441 62<273 282 462 472> 459 62<367 376>
VStem: 98 62<239 248> 113 62<149 158 330 340> 163 62<64 73> 245 62<11 21 468 477> 340 62<-6 4 485 493> 437 62<11 21 468 477> 520 62<64 73> 569 62<149 158 330 340> 584 62<239 248>
LayerCount: 2
Back
Fore
SplineSet
98 243 m 256
 98 252 101 260 107 266 c 256
 113 272 120 275 129 275 c 256
 138 275 145 272 151 266 c 256
 157 260 160 252 160 243 c 256
 160 234 157 227 151 221 c 256
 145 215 138 213 129 213 c 256
 120 213 113 215 107 221 c 256
 101 227 98 234 98 243 c 256
113 153 m 256
 113 162 116 170 122 176 c 256
 128 182 136 186 145 186 c 256
 155 186 162 182 167 176 c 256
 172 170 175 162 175 153 c 256
 175 144 172 138 167 132 c 256
 162 126 155 123 145 123 c 256
 136 123 128 126 122 132 c 256
 116 138 113 144 113 153 c 256
113 335 m 256
 113 344 116 351 122 357 c 256
 128 363 136 366 145 366 c 256
 155 366 162 363 167 357 c 256
 172 351 175 344 175 335 c 256
 175 326 172 318 167 312 c 256
 162 306 155 304 145 304 c 256
 136 304 128 306 122 312 c 256
 116 318 113 326 113 335 c 256
163 68 m 256
 163 77 166 86 172 92 c 256
 178 98 185 101 194 101 c 256
 203 101 211 98 217 92 c 256
 223 86 225 77 225 68 c 256
 225 59 223 52 217 46 c 256
 211 40 203 37 194 37 c 256
 185 37 178 40 172 46 c 256
 166 52 163 59 163 68 c 256
163 419 m 256
 163 428 166 435 172 441 c 256
 178 447 186 451 195 451 c 256
 204 451 211 448 217 442 c 256
 223 436 226 429 226 419 c 256
 226 409 223 402 217 396 c 256
 211 390 204 388 195 388 c 256
 186 388 178 390 172 396 c 256
 166 402 163 410 163 419 c 256
245 16 m 256
 245 26 248 33 255 39 c 256
 262 45 268 48 277 48 c 256
 286 48 293 45 299 39 c 256
 305 33 308 26 308 16 c 256
 308 7 305 0 299 -6 c 256
 293 -12 286 -15 277 -15 c 256
 268 -15 262 -12 255 -6 c 256
 248 0 245 7 245 16 c 256
245 473 m 256
 245 482 248 489 255 495 c 256
 262 501 268 504 277 504 c 256
 286 504 293 501 299 495 c 256
 305 489 308 482 308 473 c 256
 308 464 305 456 299 450 c 256
 293 444 286 441 277 441 c 256
 268 441 262 444 255 450 c 256
 248 456 245 464 245 473 c 256
340 -1 m 256
 340 9 343 16 349 22 c 256
 355 28 362 31 371 31 c 256
 380 31 388 28 394 22 c 256
 400 16 402 9 402 -1 c 256
 402 -10 400 -17 394 -23 c 256
 388 -29 380 -31 371 -31 c 256
 362 -31 355 -29 349 -23 c 256
 343 -17 340 -10 340 -1 c 256
340 489 m 256
 340 498 343 506 349 512 c 256
 355 518 362 521 371 521 c 256
 380 521 388 518 394 512 c 256
 400 506 402 498 402 489 c 256
 402 480 400 473 394 467 c 256
 388 461 380 459 371 459 c 256
 362 459 355 461 349 467 c 256
 343 473 340 480 340 489 c 256
437 16 m 256
 437 26 439 33 445 39 c 256
 451 45 458 48 467 48 c 256
 477 48 484 45 490 39 c 256
 496 33 499 26 499 16 c 256
 499 7 496 0 490 -6 c 256
 484 -12 477 -15 467 -15 c 256
 458 -15 451 -12 445 -6 c 256
 439 0 437 7 437 16 c 256
437 473 m 256
 437 482 439 489 445 495 c 256
 451 501 458 504 467 504 c 256
 477 504 484 501 490 495 c 256
 496 489 499 482 499 473 c 256
 499 464 496 456 490 450 c 256
 484 444 477 441 467 441 c 256
 458 441 451 444 445 450 c 256
 439 456 437 464 437 473 c 256
518 419 m 256
 518 429 520 436 526 442 c 256
 532 448 539 451 548 451 c 256
 558 451 566 447 572 441 c 256
 578 435 581 428 581 419 c 256
 581 410 578 402 572 396 c 256
 566 390 558 388 548 388 c 256
 539 388 532 390 526 396 c 256
 520 402 518 409 518 419 c 256
520 68 m 256
 520 77 521 86 527 92 c 256
 533 98 541 101 550 101 c 256
 559 101 566 98 572 92 c 256
 578 86 581 77 581 68 c 256
 581 59 578 52 572 46 c 256
 566 40 559 37 550 37 c 256
 541 37 533 40 527 46 c 256
 521 52 520 59 520 68 c 256
569 153 m 256
 569 162 572 170 578 176 c 256
 584 182 591 186 600 186 c 256
 609 186 616 182 622 176 c 256
 628 170 631 162 631 153 c 256
 631 144 628 138 622 132 c 256
 616 126 609 123 600 123 c 256
 591 123 584 126 578 132 c 256
 572 138 569 144 569 153 c 256
569 335 m 256
 569 344 572 351 578 357 c 256
 584 363 591 366 600 366 c 256
 609 366 616 363 622 357 c 256
 628 351 631 344 631 335 c 256
 631 326 628 318 622 312 c 256
 616 306 609 304 600 304 c 256
 591 304 584 306 578 312 c 256
 572 318 569 326 569 335 c 256
584 243 m 256
 584 252 586 260 592 266 c 256
 598 272 605 275 614 275 c 256
 624 275 631 272 637 266 c 256
 643 260 646 252 646 243 c 256
 646 234 643 227 637 221 c 256
 631 215 624 213 614 213 c 256
 605 213 598 215 592 221 c 256
 586 227 584 234 584 243 c 256
EndSplineSet
PickledDataWithLists: "(dp1
S'com.fontlab.hintData'
p2
(dp3
S'vhints'
p4
(lp5
(dp6
S'position'
p7
I100
sS'width'
p8
I64
sa(dp9
g7
I116
sg8
I63
sa(dp10
g7
I167
sg8
I63
sa(dp11
g7
I251
sg8
I64
sa(dp12
g7
I348
sg8
I64
sa(dp13
g7
I447
sg8
I64
sa(dp14
g7
I532
sg8
I63
sa(dp15
g7
I583
sg8
I63
sa(dp16
g7
I598
sg8
I63
sasS'hhints'
p17
(lp18
(dp19
g7
I-32
sg8
I64
sa(dp20
g7
I-15
sg8
I64
sa(dp21
g7
I38
sg8
I65
sa(dp22
g7
I126
sg8
I64
sa(dp23
g7
I218
sg8
I64
sa(dp24
g7
I311
sg8
I64
sa(dp25
g7
I397
sg8
I65
sa(dp26
g7
I452
sg8
I64
sa(dp27
g7
I470
sg8
I63
sass."
EndChar

